<svg xmlns="http://www.w3.org/2000/svg" width="72" height="82" viewBox="0 0 72 82">
    <g fill="none" fill-rule="evenodd">
        <path fill="#0012FF" d="M0 0h72v77a5 5 0 0 1-5 5H5a5 5 0 0 1-5-5V0z"/>
        <path fill="#FFF" d="M55 13l-3.626 4.797v46.61L55 69.358V13zM17 69.356l3.626-4.948v-46.61L17 13v56.356zm28.134-43.304l-.017 29.801v.082l3.65 5.213V21.246l-3.633 4.806zm-21.9 35.096l3.65-5.213-.018-29.796v-.087l-3.633-4.806v39.902zM37.64 35.986l2.256 2.92 2.76-3.501-.15-5.856-4.866 6.437zm-8.283-.584l12.959 17.143.344-5.598L29.51 29.549l-.152 5.853z"/>
    </g>
</svg>
