<svg width="64" height="104" viewBox="0 0 64 104" fill="none" xmlns="http://www.w3.org/2000/svg">
<path d="M0 0H64V93.8639C64 99.4619 59.4619 104 53.8639 104H10.1361C4.53807 104 0 99.4619 0 93.8639V0Z" fill="#F1F1F1"/>
<path fill-rule="evenodd" clip-rule="evenodd" d="M48.8615 38L45.6318 42.2561V83.6099L48.8615 88V38ZM15.0153 87.9998L18.2453 83.6097V42.256L15.0153 38V87.9998ZM40.0738 49.5799L40.0588 76.0196V76.0927L43.3097 80.7174V45.3159L40.0738 49.5799ZM20.5671 80.7174L23.8182 76.0927L23.803 49.6573V49.5799L20.5671 45.3159V80.7174ZM33.3995 58.3934L35.409 60.9838L37.8681 57.8781L37.7333 52.6825L33.3995 58.3934ZM26.0227 57.8754L37.5645 73.0846L37.8708 68.1181L26.1575 52.6825L26.0227 57.8754Z" fill="#1A1A1A"/>
</svg>
