<svg width="22" height="17" viewBox="0 0 22 17" fill="none" xmlns="http://www.w3.org/2000/svg">
<path fill-rule="evenodd" clip-rule="evenodd" d="M5 8.66553C5 8.38938 5.22386 8.16553 5.5 8.16553H16.5C16.7761 8.16553 17 8.38938 17 8.66553C17 8.94167 16.7761 9.16553 16.5 9.16553H5.5C5.22386 9.16553 5 8.94167 5 8.66553Z" fill="#3FBB79"/>
<path fill-rule="evenodd" clip-rule="evenodd" d="M9.85355 4.31197C10.0488 4.50724 10.0488 4.82382 9.85355 5.01908L6.20711 8.66553L9.85355 12.312C10.0488 12.5072 10.0488 12.8238 9.85355 13.0191C9.65829 13.2143 9.34171 13.2143 9.14645 13.0191L5.14645 9.01908C4.95118 8.82382 4.95118 8.50724 5.14645 8.31197L9.14645 4.31197C9.34171 4.11671 9.65829 4.11671 9.85355 4.31197Z" fill="#3FBB79"/>
</svg>
