<?xml version="1.0" encoding="UTF-8"?>
<svg width="34px" height="34px" viewBox="0 0 34 34" version="1.1" xmlns="http://www.w3.org/2000/svg" xmlns:xlink="http://www.w3.org/1999/xlink">
    <!-- Generator: Sketch 50.2 (55047) - http://www.bohemiancoding.com/sketch -->
    <title>logo-dribbble</title>
    <desc>Created with Sketch.</desc>
    <defs></defs>
    <g id="📱-Mobile" stroke="none" stroke-width="1" fill="none" fill-rule="evenodd">
        <g id="M-Home" transform="translate(-250.000000, -2470.000000)" fill="#0012FF">
            <g id="logo-dribbble" transform="translate(250.000000, 2470.000000)">
                <path d="M17,34 C7.65,34 0,26.35 0,17 C0,7.65 7.65,0 17,0 C26.35,0 34,7.65 34,17 C34,26.35 26.35,34 17,34 Z M31.34375,19.3375 C30.8125,19.125 26.88125,17.95625 22.3125,18.7 C24.225,23.90625 24.96875,28.15625 25.18125,29.00625 C28.36875,26.88125 30.70625,23.375 31.34375,19.3375 Z M22.63125,30.3875 C22.41875,29.1125 21.56875,24.65 19.55,19.3375 C19.55,19.3375 19.44375,19.3375 19.44375,19.3375 C11.2625,22.20625 8.2875,27.8375 8.075,28.36875 C10.51875,30.28125 13.6,31.45 17,31.45 C19.01875,31.55625 20.93125,31.13125 22.63125,30.3875 Z M6.1625,26.775 C6.48125,26.24375 10.51875,19.65625 17.95625,17.2125 C18.16875,17.10625 18.38125,17.10625 18.4875,17 C18.16875,16.15 17.74375,15.3 17.31875,14.55625 C10.09375,16.68125 3.08125,16.68125 2.44375,16.575 C2.44375,16.68125 2.44375,16.89375 2.44375,17 C2.44375,20.71875 3.93125,24.11875 6.1625,26.775 Z M2.7625,14.025 C3.4,14.025 9.35,14.025 16.15,12.21875 C13.70625,7.96875 11.15625,4.35625 10.73125,3.825 C6.8,5.84375 3.71875,9.5625 2.7625,14.025 Z M13.6,2.86875 C14.025,3.4 16.68125,7.0125 19.01875,11.36875 C24.225,9.45625 26.35,6.48125 26.66875,6.1625 C24.11875,3.93125 20.71875,2.55 17,2.55 C15.83125,2.55 14.6625,2.65625 13.6,2.86875 Z M28.2625,7.8625 C27.94375,8.2875 25.5,11.36875 20.1875,13.6 C20.50625,14.34375 20.825,14.98125 21.14375,15.725 C21.25,15.9375 21.35625,16.25625 21.4625,16.46875 C26.24375,15.83125 31.13125,16.7875 31.55625,16.89375 C31.45,13.49375 30.28125,10.30625 28.2625,7.8625 Z" id="Shape"></path>
            </g>
        </g>
    </g>
</svg>