<svg xmlns="http://www.w3.org/2000/svg" xmlns:xlink="http://www.w3.org/1999/xlink" width="24" height="24" viewBox="0 0 24 24">
    <defs>
        <path id="a" d="M22 5.875c-.75.375-1.5.5-2.375.625.875-.5 1.5-1.25 1.75-2.25-.75.5-1.625.75-2.625 1C18 4.5 16.875 4 15.75 4c-2.125 0-4 1.875-4 4.125 0 .375 0 .625.125.875-3.375-.125-6.5-1.75-8.5-4.25-.375.625-.5 1.25-.5 2.125 0 1.375.75 2.625 1.875 3.375-.625 0-1.25-.25-1.875-.5 0 2 1.375 3.625 3.25 4-.375.125-.75.125-1.125.125-.25 0-.5 0-.75-.125.5 1.625 2 2.875 3.875 2.875C6.75 17.75 5 18.375 3 18.375H2C3.875 19.5 6 20.25 8.25 20.25c7.5 0 11.625-6.25 11.625-11.625v-.5C20.75 7.5 21.5 6.75 22 5.875z"/>
    </defs>
    <g fill="none" fill-rule="evenodd">
        <mask id="b" fill="#fff">
            <use xlink:href="#a"/>
        </mask>
        <use fill="#FFF" fill-rule="nonzero" xlink:href="#a"/>
        <g fill="#0012FF" mask="url(#b)">
            <path d="M0 0h24v24H0z"/>
        </g>
    </g>
</svg>
